<svg width="156" height="156" xmlns="http://www.w3.org/2000/svg"><g transform="translate(19)" fill-rule="nonzero" fill="none"><circle fill="#3DAAE7" cx="59.1" cy="78" r="40.5"/><path d="M59.1 156c-13 0-25.8-3.3-37.2-9.4l3.8-7c10.2 5.5 21.7 8.4 33.4 8.4v8Z" fill="#3DAAE7"/><g fill="#3DAAE7"><path d="M8.2 74.4C10.1 48 32.2 27 59.1 27s49 21 50.9 47.4h8C116.1 43.5 90.4 19 59.1 19 27.8 19 2.1 43.5.2 74.4h8ZM109.9 82.4c-2.2 26.1-24.2 46.6-50.8 46.6-26.6 0-48.5-20.5-50.8-46.6h-8C2.6 112.9 28.1 137 59.1 137c31 0 56.5-24.1 58.8-54.6h-8Z"/></g><path d="M69.1 64.3h-20c-2.8 0-5-2.2-5-5s2.2-5 5-5h20c2.8 0 5 2.2 5 5s-2.2 5-5 5ZM69 83H49c-2.8 0-5-2.2-5-5s2.2-5 5-5h20c2.8 0 5 2.2 5 5s-2.2 5-5 5ZM69 101.8H49c-2.8 0-5-2.2-5-5s2.2-5 5-5h20c2.8 0 5 2.2 5 5s-2.2 5-5 5Z" fill="#1D1D1F"/><path d="M137 74.4C135.1 33.1 100.9 0 59.1 0v8c37.4 0 68 29.5 69.9 66.4h8Z" fill="#3DAAE7"/></g></svg>